<svg class="diagram-root" style="background: #f5f6f6" xmlns="http://www.w3.org/2000/svg" xmlns:xlink="http://www.w3.org/1999/xlink"><style>.diagram-root { font-family: "Helvetica Neue", sans-serif; font-size: 12px; } .t { overflow: visible; } .t-bg { y: 40; fill: #fff;   } .th { fill: #005aa0;   } .tht { fill: #fff; font-size: 14px;  } .tf { fill: #323c46; overflow: visible; } .tf.pk { fill: #005aa0; font-weight: bold; } .tf.fk { font-weight: bold; } .ty { fill: #adb1b5; font-weight: normal; text-anchor: end; } .r { fill: transparent; stroke: #c3c3c3; stroke-width: 1; } .l { stroke: 1; } .i { fill: #c2c7ce; stroke: #c2c7ce; } .i.ix { fill: #afb3b6; stroke: #000; } .fa { fill: transparent; overflow: visible; } .fa .bg.hover { fill: #f7f7f7; } .c { cy: 12; r: 4; stroke: #d2d2dc; fill: #d2d2dc; } .hr { fill: transparent; stroke: #323c46; stroke-opacity: 0.035; stroke-width: 13; } .dc { stroke: #fa5a3c; fill: #fa5a3c; } .x { stroke: white; stroke-width: 1; } .hl .th { fill: #1b9bff; } .hl .tht {  } .fhl .bg { fill: #e7f4ff; } .fhls .bg {  } .r.hl { stroke: #1b9bff; } .dim { opacity: 0.25; }</style><g class="drawing-wrapper" transform="translate(93, 31) scale(1,1)"><g class="rs"><path d="M 58.36 72 m -1, 0 a 1,1 0 1,0 2,0 a 1,1 0 1,0 -2,0 M 58.36 72 m -0.5, 0 a 0.5,0.5 0 1,0 1,0 a 0.5,0.5 0 1,0 -1,0  M58.36 72 L58.36 72 70.36 72 M 58.36 78 m -1, 0 a 1,1 0 1,0 2,0 a 1,1 0 1,0 -2,0 M 58.36 78 m -0.5, 0 a 0.5,0.5 0 1,0 1,0 a 0.5,0.5 0 1,0 -1,0  M58.36 78 L58.36 78 65.36 72 58.36 66 M 58.36 66 m -1, 0 a 1,1 0 1,0 2,0 a 1,1 0 1,0 -2,0 M 58.36 66 m -0.5, 0 a 0.5,0.5 0 1,0 1,0 a 0.5,0.5 0 1,0 -1,0  M70.36 72 Q 90.02 72, 109.68 76.5 T 149 81 M 161 81 m -1, 0 a 1,1 0 1,0 2,0 a 1,1 0 1,0 -2,0 M 161 81 m -0.5, 0 a 0.5,0.5 0 1,0 1,0 a 0.5,0.5 0 1,0 -1,0  M161 81 L161 81 149 81 M155 87 L155 87 155 75" id="h3995223060" class="r"></path><path d="M 319.05 56 m -1, 0 a 1,1 0 1,0 2,0 a 1,1 0 1,0 -2,0 M 319.05 56 m -0.5, 0 a 0.5,0.5 0 1,0 1,0 a 0.5,0.5 0 1,0 -1,0  M319.05 56 L319.05 56 331.05 56 M 319.05 62 m -1, 0 a 1,1 0 1,0 2,0 a 1,1 0 1,0 -2,0 M 319.05 62 m -0.5, 0 a 0.5,0.5 0 1,0 1,0 a 0.5,0.5 0 1,0 -1,0  M319.05 62 L319.05 62 326.05 56 319.05 50 M 319.05 50 m -1, 0 a 1,1 0 1,0 2,0 a 1,1 0 1,0 -2,0 M 319.05 50 m -0.5, 0 a 0.5,0.5 0 1,0 1,0 a 0.5,0.5 0 1,0 -1,0  M331.05 56 Q 348.29 56, 365.53 63 T 400 70 M 412 70 m -1, 0 a 1,1 0 1,0 2,0 a 1,1 0 1,0 -2,0 M 412 70 m -0.5, 0 a 0.5,0.5 0 1,0 1,0 a 0.5,0.5 0 1,0 -1,0  M412 70 L412 70 400 70 M406 76 L406 76 406 64" id="h4148151064" class="r"></path><path d="M 686 76 m -1, 0 a 1,1 0 1,0 2,0 a 1,1 0 1,0 -2,0 M 686 76 m -0.5, 0 a 0.5,0.5 0 1,0 1,0 a 0.5,0.5 0 1,0 -1,0  M686 76 L686 76 674 76 M 686 82 m -1, 0 a 1,1 0 1,0 2,0 a 1,1 0 1,0 -2,0 M 686 82 m -0.5, 0 a 0.5,0.5 0 1,0 1,0 a 0.5,0.5 0 1,0 -1,0  M686 82 L686 82 679 76 686 70 M 686 70 m -1, 0 a 1,1 0 1,0 2,0 a 1,1 0 1,0 -2,0 M 686 70 m -0.5, 0 a 0.5,0.5 0 1,0 1,0 a 0.5,0.5 0 1,0 -1,0  M674 76 Q 656.02 76, 638.03 85.5 T 602.05 95 M 590.05 95 m -1, 0 a 1,1 0 1,0 2,0 a 1,1 0 1,0 -2,0 M 590.05 95 m -0.5, 0 a 0.5,0.5 0 1,0 1,0 a 0.5,0.5 0 1,0 -1,0  M590.05 95 L590.05 95 602.05 95 M596.05 101 L596.05 101 596.05 89" id="h3200950411" class="r"></path></g><g class="hrs"></g><g class="ts"><svg width="129.36" height="125" x="-71" y="15" id="h4277519409" class="t"><rect height="40" width="129.36" class="th"></rect><text x="13" y="25" class="tht">Pokemon</text><rect height="85" width="129.36" class="t-bg"></rect><text x="13" y="61" class="tf pk">Name<tspan x="116.36000000000001" class="ty">String</tspan></text><path d="M7,14A2,2 0 0,1 5,12A2,2 0 0,1 7,10A2,2 0 0,1 9,12A2,2 0 0,1 7,14M12.65,10C11.83,7.67 9.61,6 7, 6A6, 6 0 0, 0 1, 12A6, 6 0 0, 0 7, 18C9.61, 18 11.83, 16.33 12.65, 14H17V18H21V14H23V10H12.65Z" class="i pk" transform="translate(65.01234375000001, 48) scale(0.65)"></path><text x="13" y="86" class="tf">Url<tspan x="116.36000000000001" class="ty">String</tspan></text><text x="13" y="111" class="tf">Page<tspan x="116.36000000000001" class="ty">int</tspan></text></svg><svg width="178.05" height="100" x="412" y="13" id="h3588586220" class="t"><rect height="40" width="178.05" class="th"></rect><text x="13" y="25" class="tht">Pokemon_Type</text><rect height="60" width="178.05" class="t-bg"></rect><text x="13" y="61" class="tf pk">PokemonInfoID<tspan x="165.05" class="ty">string</tspan></text><path d="M7,14A2,2 0 0,1 5,12A2,2 0 0,1 7,10A2,2 0 0,1 9,12A2,2 0 0,1 7,14M12.65,10C11.83,7.67 9.61,6 7, 6A6, 6 0 0, 0 1, 12A6, 6 0 0, 0 7, 18C9.61, 18 11.83, 16.33 12.65, 14H17V18H21V14H23V10H12.65Z" class="i pk" transform="translate(115.70625000000001, 48) scale(0.65)"></path><text x="13" y="86" class="tf pk">TypeId<tspan x="165.05" class="ty">int</tspan></text><path d="M7,14A2,2 0 0,1 5,12A2,2 0 0,1 7,10A2,2 0 0,1 9,12A2,2 0 0,1 7,14M12.65,10C11.83,7.67 9.61,6 7, 6A6, 6 0 0, 0 1, 12A6, 6 0 0, 0 7, 18C9.61, 18 11.83, 16.33 12.65, 14H17V18H21V14H23V10H12.65Z" class="i pk" transform="translate(132.376171875, 73) scale(0.65)"></path></svg><svg width="114.7" height="100" x="686" y="19" id="h362157398" class="t"><rect height="40" width="114.7" class="th"></rect><text x="13" y="25" class="tht">Type</text><rect height="60" width="114.7" class="t-bg"></rect><text x="13" y="61" class="tf pk">TypeId<tspan x="101.7" class="ty">int</tspan></text><path d="M7,14A2,2 0 0,1 5,12A2,2 0 0,1 7,10A2,2 0 0,1 9,12A2,2 0 0,1 7,14M12.65,10C11.83,7.67 9.61,6 7, 6A6, 6 0 0, 0 1, 12A6, 6 0 0, 0 7, 18C9.61, 18 11.83, 16.33 12.65, 14H17V18H21V14H23V10H12.65Z" class="i pk" transform="translate(69.026171875, 48) scale(0.65)"></path><text x="13" y="86" class="tf">Name<tspan x="101.7" class="ty">String</tspan></text></svg><svg width="158.05" height="350" x="161" y="-1" id="h2577621647" class="t"><rect height="40" width="158.05" class="th"></rect><text x="13" y="25" class="tht">PokemonInfo</text><rect height="310" width="158.05" class="t-bg"></rect><text x="13" y="61" class="tf pk">Id<tspan x="145.05" class="ty">int</tspan></text><path d="M7,14A2,2 0 0,1 5,12A2,2 0 0,1 7,10A2,2 0 0,1 9,12A2,2 0 0,1 7,14M12.65,10C11.83,7.67 9.61,6 7, 6A6, 6 0 0, 0 1, 12A6, 6 0 0, 0 7, 18C9.61, 18 11.83, 16.33 12.65, 14H17V18H21V14H23V10H12.65Z" class="i pk" transform="translate(112.37617187500001, 48) scale(0.65)"></path><text x="13" y="86" class="tf pk">PokemonId<tspan x="145.05" class="ty">String</tspan></text><path d="M7,14A2,2 0 0,1 5,12A2,2 0 0,1 7,10A2,2 0 0,1 9,12A2,2 0 0,1 7,14M12.65,10C11.83,7.67 9.61,6 7, 6A6, 6 0 0, 0 1, 12A6, 6 0 0, 0 7, 18C9.61, 18 11.83, 16.33 12.65, 14H17V18H21V14H23V10H12.65Z" class="i pk" transform="translate(93.70234375000001, 73) scale(0.65)"></path><text x="13" y="111" class="tf">Name<tspan x="145.05" class="ty">String</tspan></text><text x="13" y="136" class="tf">Height<tspan x="145.05" class="ty">int</tspan></text><text x="13" y="161" class="tf">Weight<tspan x="145.05" class="ty">int</tspan></text><text x="13" y="186" class="tf">Experience<tspan x="145.05" class="ty">int</tspan></text><text x="13" y="211" class="tf">Types<tspan x="145.05" class="ty">int</tspan></text><text x="13" y="236" class="tf">hp<tspan x="145.05" class="ty">int</tspan></text><text x="13" y="261" class="tf">attack<tspan x="145.05" class="ty">int</tspan></text><text x="13" y="286" class="tf">defense<tspan x="145.05" class="ty">int</tspan></text><text x="13" y="311" class="tf">speed<tspan x="145.05" class="ty">int</tspan></text><text x="13" y="336" class="tf">exp<tspan x="145.05" class="ty">int</tspan></text></svg></g></g><text class="qdbd-link" x="10" y="20">www.quickdatabasediagrams.com</text></svg>